<?xml version="1.0" standalone="no"?>
<!DOCTYPE svg PUBLIC "-//W3C//DTD SVG 20010904//EN"
 "http://www.w3.org/TR/2001/REC-SVG-20010904/DTD/svg10.dtd">
<svg version="1.0" xmlns="http://www.w3.org/2000/svg"
 width="800.000000pt" height="800.000000pt" viewBox="0 0 800.000000 800.000000"
 preserveAspectRatio="xMidYMid meet">

<g transform="translate(0.000000,800.000000) scale(0.100000,-0.100000)"
fill="#0d47a1" stroke="none">
<path d="M3884 7839 c-122 -20 -211 -59 -445 -193 -1314 -755 -2545 -1473
-2596 -1515 -129 -105 -228 -271 -263 -441 -19 -92 -20 -148 -20 -1690 0
-1541 1 -1598 20 -1690 40 -195 159 -377 317 -483 94 -63 2692 -1562 2779
-1604 82 -39 231 -73 319 -73 90 0 238 34 324 75 42 20 686 388 1431 818
l1355 782 96 95 c79 78 104 111 142 186 26 51 57 132 69 180 l23 89 0 1625 0
1625 -23 89 c-43 169 -148 336 -272 429 -36 27 -683 406 -1439 842 -1417 820
-1432 827 -1585 854 -69 13 -158 12 -232 0z m-1744 -3550 l0 -1171 368 4 367
3 3 -272 2 -273 -705 0 -705 0 0 1433 c0 789 3 1437 7 1440 3 4 154 7 335 7
l328 0 0 -1171z m2250 1160 c342 -31 627 -151 809 -339 102 -106 192 -266 233
-415 18 -69 21 -108 22 -275 1 -232 -16 -317 -90 -467 -145 -288 -403 -469
-789 -550 -114 -24 -139 -26 -532 -30 l-413 -5 0 -394 0 -394 -325 0 -325 0 0
1105 0 1105 325 0 325 0 0 -435 0 -435 343 0 c376 0 439 8 565 67 82 38 183
142 210 215 87 234 20 492 -159 608 -123 79 -241 100 -571 100 l-238 0 0 270
0 269 113 4 c266 7 389 6 497 -4z m-760 -269 l0 -270 -325 0 -325 0 0 270 0
270 325 0 325 0 0 -270z m2046 -405 c440 -114 759 -455 829 -886 82 -509 -144
-976 -580 -1201 -207 -106 -389 -143 -670 -135 -160 4 -194 8 -300 36 -136 35
-288 104 -400 182 -85 59 -213 188 -272 274 -40 60 -113 197 -113 213 0 5 72
14 161 21 174 13 332 39 425 71 32 12 60 16 62 11 10 -29 71 -107 115 -147 78
-70 170 -112 289 -131 95 -16 106 -16 187 1 122 24 221 73 290 144 226 231
227 681 3 908 -33 33 -80 71 -104 83 l-43 23 0 177 c0 160 -3 185 -28 278 -15
56 -27 105 -27 108 0 9 70 -3 176 -30z m-1015 -192 c21 -51 24 -73 23 -178 -1
-109 -3 -125 -29 -177 -63 -131 -193 -197 -422 -214 -66 -5 -93 -4 -93 4 0 50
105 262 174 350 85 109 271 272 311 272 7 0 23 -26 36 -57z"/>
</g>
</svg>
